<svg width="48" height="48" viewBox="0 0 48 48"  xmlns="http://www.w3.org/2000/svg">
<path d="M7.1999 7.19995H40.7999C42.2399 7.19995 43.1999 8.15995 43.1999 9.59995V33.6C43.1999 35.04 42.2399 36 40.7999 36H7.1999C5.7599 36 4.7999 35.04 4.7999 33.6V9.59995C4.7999 8.15995 5.7599 7.19995 7.1999 7.19995ZM38.3999 12H9.5999V31.2H38.3999V12ZM31.1999 14.4H11.9999V24L31.1999 14.4ZM45.5999 40.8V38.4H2.3999V40.8C2.3999 42.24 3.5999 43.2 5.0399 43.2H42.9599C44.3999 43.2 45.5999 42.24 45.5999 40.8V40.8Z" fill="black"/>
</svg>
